<svg width="250" height="100" xmlns="http://www.w3.org/2000/svg" class="iconLeft">
 <!---->
 <defs>
  <!---->
 </defs>
 <defs>
  <!---->
 </defs>
 <defs>
  <!---->
 </defs>
 <!---->
 <g>
  <title>Layer 1</title>
  <rect id="svg_1" class="logo-background-square" height="100px" width="300px" y="0" x="0" fill="#4b3832"/>
  <g transform="matrix(2.9649081230163574,0,0,2.9649081230163574,87.42583047762805,33.39651431910974)" fill="#ffffff" id="644f45dd-f2ff-428f-a68f-02315b6336ea">
   <path id="svg_2" d="m0.59,0.7l-0.1,0.59l1.22,0.46l0,7.7l-1.22,0.46l0.1,0.59l7.03,0l0,-2.59l-0.59,-0.1l-0.81,2.1l-3.03,0l0,-8.16l1.22,-0.46l-0.1,-0.59l-3.72,0zm9.24,5.84c0.11,-1.3 0.67,-2.21 1.87,-2.21c0.97,0 1.5,0.54 1.5,1.56c0,0.2 -0.04,0.47 -0.1,0.65l-3.27,0zm2.21,3.46c-1.51,0 -2.24,-1.21 -2.24,-2.89l0,-0.07l4.48,0c0.11,-0.24 0.24,-0.66 0.24,-1.03c0,-1.35 -1.19,-2.2 -2.82,-2.2c-1.96,0 -3.38,1.26 -3.38,3.41c0,2.08 1.16,3.43 3.64,3.43c0.91,0 1.8,-0.28 2.4,-0.82l-0.32,-0.46c-0.57,0.36 -1.26,0.63 -2,0.63zm5.33,-7.66l-0.64,-0.16l-0.59,1.47l-0.99,0.31l0.1,0.51l0.81,0l0,4.38c0,1.02 0.56,1.8 1.85,1.8c0.79,0 1.2,-0.32 1.66,-0.81l-0.32,-0.38c-0.29,0.33 -0.6,0.54 -1.11,0.54c-0.42,0 -0.77,-0.38 -0.77,-1.04l0,-4.49l1.74,0l0.1,-0.51l-1.84,0l0,-1.62zm3.46,2.25l0.48,-3.89l-0.39,-0.24l-0.94,0.24l0.46,3.89l0.39,0zm3.59,6.06c1.62,0 2.54,-0.77 2.54,-1.96c0,-1.23 -1.06,-1.7 -2.05,-2.12c-0.66,-0.28 -1.5,-0.63 -1.5,-1.26c0,-0.58 0.5,-0.98 1.26,-0.98c0.45,0 0.92,0.08 1.23,0.23l0.28,1.01l0.5,-0.1l0,-1.16c-0.6,-0.31 -1.24,-0.5 -1.86,-0.5c-1.52,0 -2.52,0.73 -2.52,1.86c0,1.11 0.84,1.58 1.78,2.02c0.78,0.35 1.76,0.68 1.76,1.37c0,0.67 -0.64,1.08 -1.54,1.08c-0.29,0 -0.74,-0.12 -1.05,-0.23l-0.46,-1.36l-0.52,0.1l0,1.49c0.72,0.35 1.54,0.51 2.15,0.51zm8.73,-5.12c0,-2.27 0.94,-4.38 3.49,-4.38c0.53,0 1.23,0.1 1.82,0.26l0.67,1.88l0.59,-0.1l0,-1.9c-0.97,-0.56 -1.84,-0.83 -3.08,-0.83c-3.14,0 -5.13,2.27 -5.13,5.14c0,2.59 1.49,5.14 5.13,5.14c1.15,0 2.38,-0.32 3.08,-0.83l0,-2.95l1.22,-0.48l-0.12,-0.59l-3.71,0l-0.09,0.59l1.2,0.48l0,2.9c-0.52,0.12 -1.15,0.19 -1.6,0.19c-2.77,0 -3.47,-2.36 -3.47,-4.52zm13.65,-5.07c-3.12,0 -4.67,2.55 -4.67,5.14c0,2.59 1.33,5.14 4.67,5.14c3.33,0 4.66,-2.24 4.66,-5.14c0,-2.9 -1.55,-5.14 -4.66,-5.14zm0,0.69c2.09,0 3.03,1.47 3.03,4.38c0,2.9 -0.9,4.52 -3.03,4.52c-2.13,0 -3.02,-1.54 -3.02,-4.52c0,-3 0.92,-4.38 3.02,-4.38z"/>
  </g>
  <g transform="matrix(0.6349844932556152,0,0,0.6349844932556152,16.19009303167358,18.25077526394645)" fill="#F69800" id="7089e867-bb8d-4719-a4d3-8f0bfc91f23f">
   <path id="svg_3" color="#000" overflow="visible" d="m91,14c1.645,0 3,1.355 3,3l0,66c0,1.645 -1.355,3 -3,3l-70,0c-0.268,0 -0.534,-0.118 -0.719,-0.312l-14,-14a1.012,1.012 0 0 1 -0.281,-0.688l0,-54c0,-1.645 1.355,-3 3,-3l82,0zm0,2l-82,0c-0.571,0 -1,0.429 -1,1l0,17l84,0l0,-17c0,-0.571 -0.429,-1 -1,-1zm-18,5a4,4 0 1 1 0,8a4,4 0 0 1 0,-8zm-46,0a4,4 0 1 1 0,8a4,4 0 0 1 0,-8zm65,15l-84,0l0,34l11,0c1.645,0 3,1.355 3,3l0,11l69,0c0.571,0 1,-0.429 1,-1l0,-47zm-9,7l0,34l-50,0l0,-16l-16,0l0,-18l66,0zm-2,2l-14,0l0,14l14,0l0,-14zm-16,0l-14,0l0,14l14,0l0,-14zm-16,0l-14,0l0,14l14,0l0,-14zm-16,0l-14,0l0,14l14,0l0,-14zm48,16l-14,0l0,14l14,0l0,-14zm-16,0l-14,0l0,14l14,0l0,-14zm-16,0l-14,0l0,14l14,0l0,-14zm-30,11l-9.563,0l10.563,10.563l0,-9.563c0,-0.571 -0.429,-1 -1,-1z"/>
  </g>
 </g>
</svg>